<?xml version="1.0" encoding="utf-8"?>
<!-- Generator: Adobe Illustrator 22.1.0, SVG Export Plug-In . SVG Version: 6.00 Build 0)  -->
<svg version="1.1" id="Layer_1" xmlns="http://www.w3.org/2000/svg" xmlns:xlink="http://www.w3.org/1999/xlink" x="0px" y="0px"
	 viewBox="0 0 512 512" style="enable-background:new 0 0 512 512; fill: #4f8ad4" xml:space="preserve">
<path d="M83.7,444.5l35.1,35.1c2.1,2.1,5,3.3,8,3.3s5.9-1.2,8-3.3l26.5-26.5l0.8,0.8c13.6,13.6,31.7,21.1,50.9,21.1
	c19.2,0,37.3-7.5,50.9-21.1l206.1-206.1c4.4-4.4,4.4-11.5,0-15.9l-30.8-30.8l69.6-69.6c4.4-4.4,4.4-11.5,0-15.9l-112-112
	c-4.4-4.4-11.5-4.4-15.9,0l-69.6,69.6l-30.8-30.8c-4.4-4.4-11.5-4.4-15.9,0L58.4,248.4c-28.1,28.1-28.1,73.7,0,101.8l0.8,0.8
	l-26.5,26.5c-4.4,4.4-4.4,11.5,0,15.9l35.1,35.1 M126.8,455.7l-70.2-70.2L75.1,367l70.2,70.2L126.8,455.7z M446,239.9L247.9,438
	c-9.3,9.3-21.8,14.5-35,14.5s-25.6-5.1-35-14.5L74.3,334.3C55,315,55,283.6,74.3,264.4L272.4,66.3L446,239.9z M423.2,185.2
	l-96.1-96.1l61.6-61.6l96.1,96.1L423.2,185.2z"/>
<path d="M423.2,143.5c2.9,0,5.8-1.1,8-3.3l8.6-8.6c4.4-4.4,4.4-11.5,0-15.9c-4.4-4.4-11.5-4.4-15.9,0l-8.6,8.6
	c-4.4,4.4-4.4,11.5,0,15.9C417.4,142.4,420.3,143.5,423.2,143.5z"/>
<path d="M372.1,81.1c-4.4,4.4-4.4,11.5,0,15.9c2.2,2.2,5.1,3.3,8,3.3s5.8-1.1,8-3.3l8.6-8.6c4.4-4.4,4.4-11.5,0-15.9
	c-4.4-4.4-11.5-4.4-15.9,0L372.1,81.1z"/>
<path d="M222.7,219.4l39.3-39.3c4.4-4.4,4.4-11.5,0-15.9c-4.4-4.4-11.5-4.4-15.9,0l-43.7,43.7c-2.8,2.8-3.9,6.8-3,10.6l15.2,63.3
	l-23.9,23.9c-14.6-7.8-33.2-5.5-45.6,6.8c-15.1,15.1-15.1,39.6,0,54.7c7.3,7.3,17,11.3,27.4,11.3s20.1-4,27.4-11.3
	c12.3-12.3,14.6-30.9,6.8-45.6l47.8-47.8l63.3,15.2c0.9,0.2,1.8,0.3,2.6,0.3c3,0,5.8-1.2,8-3.3l43.7-43.7c4.4-4.4,4.4-11.5,0-15.9
	c-4.4-4.4-11.5-4.4-15.9,0l-39.3,39.3l-43.7-10.5l63.9-63.9c4.4-4.4,4.4-11.5,0-15.9c-4.4-4.4-11.5-4.4-15.9,0l-87.8,87.8
	L222.7,219.4z M183.9,351.2c-3,3-7.1,4.7-11.4,4.7c-4.3,0-8.4-1.7-11.4-4.7c-6.3-6.3-6.3-16.5,0-22.8c3.1-3.1,7.3-4.7,11.4-4.7
	c4.1,0,8.3,1.6,11.4,4.7C190.2,334.7,190.2,344.9,183.9,351.2z"/>
</svg>
