<?xml version="1.0" encoding="iso-8859-1"?>
<!-- Generator: Adobe Illustrator 19.0.0, SVG Export Plug-In . SVG Version: 6.00 Build 0)  -->
<svg version="1.1" id="Capa_1" xmlns="http://www.w3.org/2000/svg" xmlns:xlink="http://www.w3.org/1999/xlink" x="0px" y="0px"
	 viewBox="0 0 496 496" style="enable-background:new 0 0 496 496; fill: #4f8ad4" xml:space="preserve">
<g>
	<g>
		<g>
			<path d="M424,193.472V168C424,75.36,348.64,0,256,0S88,75.36,88,168v41.472c-9.288,3.312-16,12.112-16,22.528v9.472
				c-9.288,3.312-16,12.112-16,22.528v208c0,13.232,10.768,24,24,24h336c13.232,0,24-10.768,24-24V216
				C440,205.584,433.288,196.784,424,193.472z M104,168c0-83.816,68.184-152,152-152s152,68.184,152,152v24h-32v-24
				c0-66.168-53.832-120-120-120s-120,53.832-120,120v7.752l-5.824-1.456L121.752,208H104V168z M184.24,222.056L179.752,240h-17.504
				l5.512-22.056l-15.52-3.88L145.752,240h-15.504l11.576-46.296L288,230.248V240h-91.752l3.512-14.056L184.24,222.056z
				 M152,179.752V168c0-57.344,46.656-104,104-104s104,46.656,104,104v24h-48c-12.48,0-22.648,9.616-23.776,21.808L152,179.752z
				 M88,232c0-4.408,3.592-8,8-8h21.752l-4,16H88V232z M424,472c0,4.408-3.592,8-8,8H80c-4.408,0-8-3.592-8-8V264
				c0-4.408,3.592-8,8-8h224v-40c0-4.408,3.592-8,8-8h104c4.408,0,8,3.592,8,8V472z"/>
			<path d="M248,288c-26.472,0-48,21.528-48,48c0,17.248,9.264,33.016,24,41.528V440h48v-62.472c14.736-8.504,24-24.28,24-41.528
				C296,309.528,274.472,288,248,288z M260.792,365.296L256,367.392V424h-16v-56.608l-4.792-2.096
				C223.536,360.184,216,348.688,216,336c0-17.648,14.352-32,32-32s32,14.352,32,32C280,348.688,272.464,360.184,260.792,365.296z"
				/>
			<rect x="288" y="384" width="16" height="16"/>
			<rect x="320" y="384" width="16" height="16"/>
			<rect x="352" y="384" width="16" height="16"/>
			<rect x="128" y="384" width="16" height="16"/>
			<rect x="160" y="384" width="16" height="16"/>
			<rect x="192" y="384" width="16" height="16"/>
		</g>
	</g>
</g>
<g>
</g>
<g>
</g>
<g>
</g>
<g>
</g>
<g>
</g>
<g>
</g>
<g>
</g>
<g>
</g>
<g>
</g>
<g>
</g>
<g>
</g>
<g>
</g>
<g>
</g>
<g>
</g>
<g>
</g>
</svg>
