<?xml version="1.0" encoding="iso-8859-1"?>
<!-- Generator: Adobe Illustrator 19.0.0, SVG Export Plug-In . SVG Version: 6.00 Build 0)  -->
<svg version="1.1" id="Capa_1" xmlns="http://www.w3.org/2000/svg" xmlns:xlink="http://www.w3.org/1999/xlink" x="0px" y="0px"
	 viewBox="0 0 480 480" style="enable-background:new 0 0 480 480; fill: #4f8ad4" xml:space="preserve">
<g>
	<g>
		<g>
			<path d="M399.984,471.336l-16-192c-0.281-3.357-2.635-6.178-5.888-7.056l-10.112-2.76V264c0.003-3.752-2.602-7.002-6.264-7.816
				L295.984,241.6v-21.032c0.696-0.544,1.416-1.032,2.104-1.6c27.171-22.666,43.664-55.632,45.512-90.968h0.384c4.418,0,8-3.582,8-8
				v-8c0-61.856-50.144-112-112-112s-112,50.144-112,112v16c0,4.418,3.582,8,8,8c0.328-0.031,0.654-0.082,0.976-0.152
				c3.758,32.443,19.839,62.201,44.92,83.12c0.688,0.568,1.408,1.056,2.104,1.6V241.6l-65.736,14.6
				c-3.657,0.813-6.26,4.054-6.264,7.8v5.52l-10.112,2.76c-3.24,0.889-5.579,3.708-5.856,7.056l-16,192
				c-0.367,4.403,2.905,8.27,7.308,8.636c0.219,0.018,0.439,0.027,0.66,0.028h304c4.418,0.015,8.012-3.554,8.028-7.972
				C400.013,471.797,400.003,471.566,399.984,471.336z M351.984,270.4v6.48l-56-18.664v-0.256L351.984,270.4z M143.984,112
				c0-53.019,42.981-96,96-96s96,42.981,96,96h-24c-22.08-0.026-39.974-17.92-40-40c0.004-4.418-3.575-8.003-7.993-8.007
				c-0.586,0-1.17,0.063-1.743,0.191l-4.8,1.072c-40.373,8.924-78.808,25.048-113.464,47.6V112z M152.352,126.56
				c31.961-20.882,67.321-36.026,104.488-44.752c4.794,26.706,28.011,46.155,55.144,46.192H327.6
				c-1.84,30.586-16.23,59.054-39.768,78.672c-27.713,23.109-67.983,23.109-95.696,0
				C168.246,186.714,153.815,157.655,152.352,126.56z M239.984,287.048l-40-20V230.64c12.441,6.141,26.126,9.343,40,9.36
				c13.875-0.019,27.56-3.224,40-9.368v36.416L239.984,287.048z M279.984,284.936v15.952l-19.144-6.4L279.984,284.936z
				 M255.352,398.168l-15.368,20.496l-15.368-20.496l15.368-66.592L255.352,398.168z M219.128,294.544l-19.144,6.4v-16
				L219.128,294.544z M127.984,270.4l56-12.44l-56,18.92V270.4z M107.016,339.896c8.585,6.742,13.41,17.197,12.968,28.104
				c0.921,12.962-6.163,25.173-17.872,30.808L107.016,339.896z M335.984,464V344h-16v120h-160V344h-16v120H96.68l4-48.368
				c19.864-2.832,35.304-23.088,35.304-47.632c0.792-19.269-10.061-37.13-27.528-45.304l3.032-36.456l0.496-0.136V288
				c0,4.418,3.582,8,8,8c0.86,0,1.714-0.14,2.528-0.416l61.472-20.488V312c0.003,4.418,3.588,7.997,8.006,7.994
				c0.857-0.001,1.709-0.139,2.522-0.41l34.472-11.488l-20.8,90.104c-0.529,2.299-0.017,4.714,1.4,6.6l24,32
				c2.651,3.535,7.665,4.251,11.2,1.6c0.606-0.455,1.145-0.994,1.6-1.6l24-32c1.417-1.886,1.929-4.301,1.4-6.6l-20.8-90.104
				l34.472,11.488c0.814,0.276,1.668,0.416,2.528,0.416c4.418,0,8-3.582,8-8v-36.904l61.472,20.488
				c0.814,0.276,1.668,0.416,2.528,0.416c4.418,0,8-3.582,8-8v-1.896l0.496,0.136L383.288,464H335.984z"/>
			<rect x="279.984" y="360" width="32" height="16"/>
		</g>
	</g>
</g>
<g>
</g>
<g>
</g>
<g>
</g>
<g>
</g>
<g>
</g>
<g>
</g>
<g>
</g>
<g>
</g>
<g>
</g>
<g>
</g>
<g>
</g>
<g>
</g>
<g>
</g>
<g>
</g>
<g>
</g>
</svg>
