<?xml version="1.0" encoding="iso-8859-1"?>
<!-- Generator: Adobe Illustrator 19.0.0, SVG Export Plug-In . SVG Version: 6.00 Build 0)  -->
<svg version="1.1" id="Layer_1" xmlns="http://www.w3.org/2000/svg" xmlns:xlink="http://www.w3.org/1999/xlink" x="0px" y="0px"
	 viewBox="0 0 512 512" style="enable-background:new 0 0 512 512; fill: #4f8ad4" xml:space="preserve">
<g transform="translate(1 1)">
	<g>
		<g>
			<path d="M374.467,152.6c0-14.507-11.093-25.6-25.6-25.6H161.133c-14.507,0-25.6,11.093-25.6,25.6V255
				c0,14.507,11.093,25.6,25.6,25.6h187.733c14.507,0,25.6-11.093,25.6-25.6V152.6z M357.4,255c0,5.12-3.413,8.533-8.533,8.533
				h-56.32l28.16-28.16c3.413-3.413,3.413-8.533,0-11.947c-3.413-3.413-8.533-3.413-11.947,0l-40.107,40.107h-52.907l28.16-28.16
				c3.413-3.413,3.413-8.533,0-11.947s-8.533-3.413-11.947,0l-40.107,40.107h-30.72c-5.12,0-8.533-3.413-8.533-8.533V152.6
				c0-5.12,3.413-8.533,8.533-8.533h187.733c5.12,0,8.533,3.413,8.533,8.533V255z"/>
			<path d="M495.64,144.92h-19.627c-8.533,0-15.36,6.827-15.36,15.36v17.92h-9.387V24.6c0-14.507-11.093-25.6-25.6-25.6H84.333
				c-14.507,0-25.6,11.093-25.6,25.6v153.6h-9.387v-17.92c0-8.533-6.827-15.36-15.36-15.36H14.36C5.827,144.92-1,151.747-1,160.28
				v53.76c0,8.533,6.827,15.36,15.36,15.36h20.48c8.533,0,15.36-6.827,14.507-15.36v-18.773h9.387v93.867H50.2
				c-5.12,0-8.533,3.413-8.533,8.533v102.4c0,0.145,0.013,0.284,0.018,0.427c-0.005,0.143-0.018,0.281-0.018,0.427v33.28
				c0,14.507,11.093,25.6,25.6,25.6H75.8v17.067C75.8,495.64,91.16,511,109.933,511h34.133c18.773,0,34.133-15.36,34.133-34.133
				V459.8h153.6v17.067c0,18.773,15.36,34.133,34.133,34.133h34.133c18.773,0,34.133-15.36,34.133-34.133V459.8h8.533
				c14.507,0,25.6-11.093,25.6-25.6v-33.28c0-0.145-0.013-0.284-0.018-0.427c0.005-0.143,0.018-0.281,0.018-0.427v-102.4
				c0-5.12-3.413-8.533-8.533-8.533h-8.533v-93.867h9.387v18.773c0,8.533,6.827,15.36,15.36,15.36h19.627
				c8.533,0,15.36-6.827,15.36-15.36v-53.76C511,151.747,504.173,144.92,495.64,144.92z M33.133,212.333H16.067v-51.2h17.067
				V212.333z M161.133,476.867c0,9.387-7.68,17.067-17.067,17.067h-34.133c-9.387,0-17.067-7.68-17.067-17.067V459.8h68.267V476.867
				z M417.133,476.867c0,9.387-7.68,17.067-17.067,17.067h-34.133c-9.387,0-17.067-7.68-17.067-17.067V459.8h68.267V476.867z
				 M451.267,434.2c0,5.12-3.413,8.533-8.533,8.533H434.2H331.8H178.2H75.8h-8.533c-5.12,0-8.533-3.413-8.533-8.533v-24.747h392.533
				V434.2z M451.267,391.533H58.733V306.2H101.4h8.533v-8.533V116.76c0-8.533,6.827-15.36,15.36-15.36h259.413
				c8.533,0,15.36,6.827,15.36,15.36v180.907v8.533h8.533h42.667V391.533z M417.133,289.133V116.76
				c0-17.92-14.507-32.427-32.427-32.427h-44.373v-25.6c0-5.12-3.413-8.533-8.533-8.533c-5.12,0-8.533,3.413-8.533,8.533v25.6h-25.6
				v-25.6c0-5.12-3.413-8.533-8.533-8.533s-8.533,3.413-8.533,8.533v25.6H255v-25.6c0-5.12-3.413-8.533-8.533-8.533
				s-8.533,3.413-8.533,8.533v25.6h-25.6v-25.6c0-5.12-3.413-8.533-8.533-8.533c-5.12,0-8.533,3.413-8.533,8.533v25.6h-25.6v-25.6
				c0-5.12-3.413-8.533-8.533-8.533s-8.533,3.413-8.533,8.533v25.6h-27.307c-17.92,0-32.427,14.507-32.427,32.427v172.373H75.8V24.6
				c0-5.12,3.413-8.533,8.533-8.533h341.333c5.12,0,8.533,3.413,8.533,8.533v264.533H417.133z M493.933,212.333h-17.067v-51.2
				h17.067V212.333z"/>
			<path d="M289.133,331.8c5.12,0,8.533-3.413,8.533-8.533s-3.413-8.533-8.533-8.533h-68.267c-5.12,0-8.533,3.413-8.533,8.533
				s3.413,8.533,8.533,8.533H289.133z"/>
			<path d="M314.733,348.867H195.267c-5.12,0-8.533,3.413-8.533,8.533s3.413,8.533,8.533,8.533h119.467
				c5.12,0,8.533-3.413,8.533-8.533S319.853,348.867,314.733,348.867z"/>
			<path d="M109.933,323.267c-14.507,0-25.6,11.093-25.6,25.6c0,14.507,11.093,25.6,25.6,25.6s25.6-11.093,25.6-25.6
				C135.533,334.36,124.44,323.267,109.933,323.267z M109.933,357.4c-5.12,0-8.533-3.413-8.533-8.533s3.413-8.533,8.533-8.533
				s8.533,3.413,8.533,8.533S115.053,357.4,109.933,357.4z"/>
			<path d="M374.467,348.867c0,14.507,11.093,25.6,25.6,25.6c14.507,0,25.6-11.093,25.6-25.6c0-14.507-11.093-25.6-25.6-25.6
				C385.56,323.267,374.467,334.36,374.467,348.867z M408.6,348.867c0,5.12-3.413,8.533-8.533,8.533
				c-5.12,0-8.533-3.413-8.533-8.533s3.413-8.533,8.533-8.533C405.187,340.333,408.6,343.747,408.6,348.867z"/>
		</g>
	</g>
</g>
<g>
</g>
<g>
</g>
<g>
</g>
<g>
</g>
<g>
</g>
<g>
</g>
<g>
</g>
<g>
</g>
<g>
</g>
<g>
</g>
<g>
</g>
<g>
</g>
<g>
</g>
<g>
</g>
<g>
</g>
</svg>
